<svg width="35" height="35" viewBox="0 0 35 35" fill="none" xmlns="http://www.w3.org/2000/svg">
<path d="M17.5 35C15.1302 35 12.863 34.5386 10.6982 33.6157C8.53353 32.6929 6.67074 31.451 5.10986 29.8901C3.54899 28.3293 2.30713 26.4665 1.38428 24.3018C0.461426 22.137 0 19.8698 0 17.5C0 15.1302 0.461426 12.863 1.38428 10.6982C2.30713 8.53353 3.54899 6.67074 5.10986 5.10986C6.67074 3.54899 8.53353 2.30713 10.6982 1.38428C12.863 0.461426 15.1302 0 17.5 0C19.8698 0 22.137 0.461426 24.3018 1.38428C26.4665 2.30713 28.3293 3.54899 29.8901 5.10986C31.451 6.67074 32.6929 8.53353 33.6157 10.6982C34.5386 12.863 35 15.1302 35 17.5C35 19.8698 34.5386 22.137 33.6157 24.3018C32.6929 26.4665 31.451 28.3293 29.8901 29.8901C28.3293 31.451 26.4665 32.6929 24.3018 33.6157C22.137 34.5386 19.8698 35 17.5 35ZM27.7881 8.75C27.6514 8.81836 27.4463 8.94368 27.1729 9.12598L26.5063 9.57031L25.874 9.91211L25.1562 10.1514C24.3132 9.21712 23.2764 8.75 22.0459 8.75C19.3799 8.75 18.0469 9.86654 18.0469 12.0996V14.1162C14.3783 13.9339 11.5641 12.5895 9.60449 10.083C9.03483 10.6755 8.75 11.3249 8.75 12.0312C8.75 13.5352 9.30827 14.6745 10.4248 15.4492C10.2881 15.4492 10.0944 15.4606 9.84375 15.4834C9.5931 15.5062 9.39372 15.5062 9.24561 15.4834C9.09749 15.4606 8.93229 15.4036 8.75 15.3125C8.75 16.3607 9.02913 17.2323 9.5874 17.9272C10.1457 18.6222 10.9147 19.0723 11.8945 19.2773C11.6667 19.5508 11.3477 19.6875 10.9375 19.6875C10.5729 19.6875 10.2539 19.585 9.98047 19.3799C9.98047 20.2686 10.4077 20.9578 11.2622 21.4478C12.1167 21.9377 13.0794 22.194 14.1504 22.2168C13.7402 22.832 13.1421 23.2935 12.356 23.6011C11.5698 23.9087 10.7324 24.0625 9.84375 24.0625C9.52474 24.0625 9.0861 23.9827 8.52783 23.8232C7.96956 23.6637 7.67904 23.584 7.65625 23.584C8.02083 24.3132 8.76709 24.9398 9.89502 25.4639C11.0229 25.988 12.4528 26.25 14.1846 26.25C15.7113 26.25 17.1354 25.9823 18.457 25.4468C19.7786 24.9113 20.9066 24.1992 21.8408 23.3105C22.7751 22.4219 23.5783 21.4079 24.2505 20.2686C24.9227 19.1292 25.424 17.95 25.7544 16.731C26.0848 15.5119 26.25 14.3099 26.25 13.125C26.25 13.0794 26.3867 12.9826 26.6602 12.8345C26.9336 12.6864 27.2526 12.487 27.6172 12.2363C27.9818 11.9857 28.2552 11.7236 28.4375 11.4502C27.207 11.4502 26.3867 11.473 25.9766 11.5186C26.7741 11.04 27.3779 10.1172 27.7881 8.75Z" fill="white" fill-opacity="0.8"/>
</svg>
