<svg width="35" height="35" viewBox="0 0 35 35" fill="none" xmlns="http://www.w3.org/2000/svg">
<path d="M17.5 0C7.83344 0 0 7.83344 0 17.5C0 27.1666 7.83344 35 17.5 35C27.1666 35 35 27.1666 35 17.5C35 7.83344 27.1666 0 17.5 0ZM13.125 26.25C8.28625 26.25 4.375 22.3409 4.375 17.5C4.375 12.6591 8.28625 8.75 13.125 8.75C15.4897 8.75 17.465 9.61187 18.9897 11.0403L16.6097 13.3241C15.96 12.7028 14.8247 11.9766 13.1228 11.9766C10.1347 11.9766 7.69562 14.4506 7.69562 17.5C7.69562 20.5494 10.1369 23.0234 13.1228 23.0234C16.5878 23.0234 17.8872 20.5363 18.0862 19.25H13.1228V16.2488H21.3872C21.4616 16.6863 21.525 17.1237 21.525 17.6991C21.525 22.7019 18.1759 26.25 13.1228 26.25H13.125ZM28.4375 17.5V19.6875H26.25V17.5H24.0625V15.3125H26.25V13.125H28.4375V15.3125H30.625V17.5H28.4375Z" fill="white" fill-opacity="0.8"/>
</svg>
